<svg width="64" height="64" viewBox="0 0 64 64" fill="none" xmlns="http://www.w3.org/2000/svg">
  <path opacity="0.951" fill-rule="evenodd" clip-rule="evenodd"
    d="M18.4616 0C19.6923 0 20.9231 0 22.1539 0C22.457 1.39207 22.6621 2.80088 22.7693 4.22642C19.9861 4.13285 18.0374 5.3404 16.9231 7.84906C16.2891 13.6764 15.6737 19.5129 15.0769 25.3585C14.109 28.4202 12.1603 30.634 9.23078 32C12.1603 33.366 14.109 35.5798 15.0769 38.6415C15.6923 44.2767 16.3077 49.912 16.9231 55.5472C18.1057 58.0206 20.0545 59.4294 22.7693 59.7736C22.6621 61.1991 22.457 62.6077 22.1539 64C21.1282 64 20.1026 64 19.0769 64C13.5878 62.1126 10.4083 58.2887 9.53847 52.5283C9.33336 48.7044 9.12819 44.8805 8.92309 41.0566C7.97951 36.3086 5.00517 34.0948 0 34.4151C0 32.805 0 31.195 0 29.5849C2.92813 29.4465 5.49225 28.4402 7.69231 26.566C8.29133 25.4236 8.70161 24.2161 8.92309 22.9434C9.00665 18.0761 9.41693 13.2459 10.1539 8.45283C11.8236 4.50163 14.5928 1.68403 18.4616 0Z"
    fill="#DFD6AE" />
  <path opacity="0.961" fill-rule="evenodd" clip-rule="evenodd"
    d="M64.0001 27.7736C64.0001 31.195 64.0001 34.6163 64.0001 38.0377C63.4118 40.8792 62.4887 43.6968 61.2308 46.4906C59.8185 47.9624 58.0751 48.8681 56.0001 49.2075C43.5314 50.6736 31.0186 51.0761 18.4616 50.4151C17.6411 49.0063 17.6411 47.5975 18.4616 46.1887C30.8186 45.9672 43.1263 45.1621 55.3847 43.7736C56.7527 43.3801 57.4708 42.4744 57.5385 41.0566C58.7693 35.6226 58.7693 30.1887 57.5385 24.7547C57.3705 23.6505 56.8573 22.7448 56.0001 22.0377C52.7951 21.0466 49.513 20.4429 46.1539 20.2264C36.9194 19.9042 27.6886 19.5018 18.4616 19.0189C17.6411 17.6101 17.6411 16.2012 18.4616 14.7925C27.4872 14.3899 36.5128 14.3899 45.5385 14.7925C50.4698 14.8744 55.1877 15.8808 59.6924 17.8113C62.1994 20.7363 63.6358 24.0571 64.0001 27.7736Z"
    fill="#DFD6AF" />
  <path opacity="0.93" fill-rule="evenodd" clip-rule="evenodd"
    d="M22.769 24.1509C28.9153 23.4471 30.5563 25.7615 27.6921 31.0943C21.4942 31.981 19.8531 29.6665 22.769 24.1509Z"
    fill="#DFD6AF" />
  <path opacity="0.93" fill-rule="evenodd" clip-rule="evenodd"
    d="M35.0766 24.1509C41.2229 23.4471 42.8639 25.7615 39.9997 31.0943C33.8018 31.981 32.1607 29.6665 35.0766 24.1509Z"
    fill="#DFD6AF" />
  <path opacity="0.93" fill-rule="evenodd" clip-rule="evenodd"
    d="M47.3847 24.1509C53.5312 23.4471 55.1718 25.7615 52.3078 31.0943C46.1099 31.981 44.4688 29.6665 47.3847 24.1509Z"
    fill="#DFD6AF" />
  <path opacity="0.977" fill-rule="evenodd" clip-rule="evenodd"
    d="M22.7691 33.8113C28.3114 33.7108 33.8499 33.8114 39.3845 34.1132C39.9483 34.3391 40.4612 34.641 40.923 35.0189C41.4727 37.0815 41.165 38.9934 39.9999 40.7547C34.4614 41.1572 28.923 41.1572 23.3845 40.7547C21.9017 40.2971 21.2863 39.2908 21.5383 37.7358C21.5275 36.2806 21.9378 34.9724 22.7691 33.8113Z"
    fill="#DFD6AF" />
  <path opacity="0.93" fill-rule="evenodd" clip-rule="evenodd"
    d="M47.3847 33.8113C53.5312 33.1074 55.1718 35.4219 52.3078 40.7547C46.1099 41.6414 44.4688 39.3269 47.3847 33.8113Z"
    fill="#DFD6AF" />
</svg>